<?xml version="1.0" encoding="UTF-8" standalone="no"?>
<svg
   width="312px"
   height="312px"
   viewBox="-26.5 0 312 312"
   version="1.1"
   id="svg841"
   sodipodi:docname="paper-svgrepo-com.svg"
   inkscape:version="1.2 (dc2aedaf03, 2022-05-15)"
   xmlns:inkscape="http://www.inkscape.org/namespaces/inkscape"
   xmlns:sodipodi="http://sodipodi.sourceforge.net/DTD/sodipodi-0.dtd"
   xmlns="http://www.w3.org/2000/svg"
   xmlns:svg="http://www.w3.org/2000/svg">
  <defs
     id="defs845" />
  <sodipodi:namedview
     id="namedview843"
     pagecolor="#ffffff"
     bordercolor="#000000"
     borderopacity="0.25"
     inkscape:showpageshadow="2"
     inkscape:pageopacity="0.0"
     inkscape:pagecheckerboard="0"
     inkscape:deskcolor="#d1d1d1"
     showgrid="false"
     inkscape:zoom="2.8108974"
     inkscape:cx="155.82212"
     inkscape:cy="127.71722"
     inkscape:window-width="1920"
     inkscape:window-height="1017"
     inkscape:window-x="-8"
     inkscape:window-y="-8"
     inkscape:window-maximized="1"
     inkscape:current-layer="svg841" />
  <g
     id="paper"
     transform="translate(-483.982 -1807.416)"
     style="fill:#999999">
    <path
       id="Path_7"
       data-name="Path 7"
       d="M713.681,1807.416H513.49a29.225,29.225,0,0,0-29.508,29.156v253.495a29.387,29.387,0,0,0,29.508,29.349H631.152a12.023,12.023,0,0,0,8.566-3.456l99.832-99.9a11.9,11.9,0,0,0,3.432-8.52V1836.572A29.048,29.048,0,0,0,713.681,1807.416Zm-205.7,282.651V1836.572a5.363,5.363,0,0,1,5.508-5.156H713.681a5.182,5.182,0,0,1,5.3,5.156v152.844H642.513a29.524,29.524,0,0,0-29.531,29.485v76.515H513.49A5.526,5.526,0,0,1,507.982,2090.067Zm129-5.771V2018.9a5.665,5.665,0,0,1,5.531-5.485h65.4Z"
       fill="#453c5c"
       style="fill:#999999" />
  </g>
</svg>
