<?xml version="1.0" encoding="UTF-8" standalone="no"?>
<svg
   width="309.395px"
   height="309.395px"
   viewBox="0 -0.01 309.395 309.395"
   version="1.1"
   id="svg12"
   sodipodi:docname="search-svgrepo-com.svg"
   inkscape:version="1.2 (dc2aedaf03, 2022-05-15)"
   xmlns:inkscape="http://www.inkscape.org/namespaces/inkscape"
   xmlns:sodipodi="http://sodipodi.sourceforge.net/DTD/sodipodi-0.dtd"
   xmlns="http://www.w3.org/2000/svg"
   xmlns:svg="http://www.w3.org/2000/svg">
  <defs
     id="defs16" />
  <sodipodi:namedview
     id="namedview14"
     pagecolor="#ffffff"
     bordercolor="#000000"
     borderopacity="0.25"
     inkscape:showpageshadow="2"
     inkscape:pageopacity="0.0"
     inkscape:pagecheckerboard="0"
     inkscape:deskcolor="#d1d1d1"
     showgrid="false"
     inkscape:zoom="2.7052798"
     inkscape:cx="122.72298"
     inkscape:cy="169.29857"
     inkscape:window-width="1920"
     inkscape:window-height="1017"
     inkscape:window-x="-8"
     inkscape:window-y="-8"
     inkscape:window-maximized="1"
     inkscape:current-layer="svg12" />
  <g
     id="search"
     transform="translate(-481.548 -3672.473)"
     style="fill:#999999">
    <path
       id="Path_27"
       data-name="Path 27"
       d="M782.649,3919.773l-53.462-53.462a28.306,28.306,0,0,0-38.278-1.617L673.5,3847.286a107.7,107.7,0,1,0-17.134,17.132l17.408,17.409a28.3,28.3,0,0,0,1.618,38.276l53.463,53.461a28.319,28.319,0,0,0,40.046,0l13.747-13.747a28.314,28.314,0,0,0,0-40.044ZM530.227,3839.2a83.479,83.479,0,1,1,59.026,24.448A82.932,82.932,0,0,1,530.227,3839.2Zm235.29,103.485L751.77,3956.43a4.088,4.088,0,0,1-5.78,0l-53.465-53.462a4.085,4.085,0,0,1,0-5.777l13.748-13.749a4.091,4.091,0,0,1,5.78,0l53.463,53.462a4.087,4.087,0,0,1,0,5.778Z"
       fill="#453c5c"
       style="fill:#999999" />
  </g>
  <path
     style="fill:#999999;fill-opacity:1;stroke-width:0.739295"
     d="m 263.4529,308.57871 c -8.98292,-1.13769 -9.98592,-1.95132 -42.55408,-34.51948 -35.25363,-35.25363 -34.22681,-33.85183 -34.22681,-46.72599 0,-7.65101 0.0422,-7.83981 2.93397,-13.13368 l 2.93397,-5.37107 -8.46662,-8.49071 c -4.65665,-4.66989 -8.70161,-8.49071 -8.98881,-8.49071 -0.2872,0 -3.45311,1.97554 -7.03536,4.39008 -11.98318,8.07702 -25.13235,13.67277 -39.41182,16.77208 -8.90502,1.9328 -32.429804,1.95921 -41.400521,0.0465 C 65.367417,208.39269 47.498988,198.76583 32.149027,183.37641 19.385669,170.58025 11.519252,157.85254 5.9078605,140.91872 1.5918034,127.8939 0.48280293,119.6505 0.9414908,104.00281 1.2573287,93.228303 1.6636371,89.590387 3.2553156,83.285789 11.303326,51.407795 31.165614,26.244648 59.513254,12.013694 117.732,-17.213015 187.53062,11.258068 209.1498,73.050924 c 4.22214,12.067896 5.49948,20.084871 5.49948,34.516506 0,10.58636 -0.30048,14.34845 -1.65329,20.70027 -3.21867,15.11252 -8.22925,27.02947 -16.61886,39.52559 l -4.94553,7.36627 8.8469,8.8469 8.8469,8.8469 2.94443,-2.04049 c 3.73697,-2.58972 11.04208,-4.88016 15.56473,-4.88016 4.12839,0 10.48668,1.74741 14.11493,3.87912 3.17906,1.8678 59.1773,57.41547 62.10953,61.6098 2.78321,3.98116 5.16632,11.21218 5.16632,15.67603 0,4.68385 -1.82266,10.78887 -4.46139,14.94341 -1.16215,1.82976 -6.38875,7.55628 -11.61465,12.72561 -7.1865,7.10869 -10.53591,9.87228 -13.74632,11.34205 -4.98675,2.28301 -10.45515,3.14059 -15.75008,2.46998 z m 13.52662,-31.11734 c 6.33566,-6.25091 8.38838,-8.73758 8.38838,-10.1617 0,-1.49489 -5.78133,-7.66837 -27.90475,-29.79753 -23.83947,-23.84566 -28.21595,-27.91199 -30.04103,-27.91199 -1.69778,0 -3.57111,1.40373 -9.12626,6.83848 -7.29387,7.13581 -9.42496,10.11704 -8.75066,12.24155 0.68841,2.16899 56.15811,57.06737 57.66126,57.06737 0.77138,0 5.10008,-3.66569 9.77306,-8.27618 z M 114.96038,191.09024 c 45.49616,-4.42276 78.39678,-42.01533 76.29576,-87.1763 C 189.71018,70.683996 169.04972,41.579217 138.69803,29.874368 126.31678,25.099653 122.88153,24.49902 107.93708,24.496005 95.515075,24.493491 93.604182,24.670073 87.111479,26.42038 72.685996,30.309208 60.299093,37.165516 49.966182,46.980771 14.18118,80.973023 15.490657,138.45685 52.791592,171.01138 c 13.725224,11.97874 30.349865,18.79911 49.600778,20.34904 1.62645,0.13095 3.4562,0.28544 4.06612,0.3433 0.60992,0.0579 4.43577,-0.2182 8.50189,-0.61348 z"
     id="path661"
     transform="translate(0,-0.01)" />
</svg>
